name D:\school\WTK\thesis\model\3dpredictsim\Results\Batchsim_tmt_linear_v2\Pog_s1_tmt_aCst_d00_k2000_ig24_pas.mot
datacolumns 128
datarows 4
range 0.00000000 0.03220576
endheader
time	pelvis_tilt	pelvis_list	pelvis_rotation	pelvis_tx	pelvis_ty	pelvis_tz	hip_flexion_l	hip_adduction_l	hip_rotation_l	hip_flexion_r	hip_adduction_r	hip_rotation_r	knee_angle_l	knee_angle_r	ankle_angle_l	ankle_angle_r	subtalar_angle_l	subtalar_angle_r	tmt_angle_l	tmt_angle_r	mtp_angle_l	mtp_angle_r	lumbar_extension	lumbar_bending	lumbar_rotation	arm_flex_l	arm_add_l	arm_rot_l	arm_flex_r	arm_add_r	arm_rot_r	elbow_flex_l	elbow_flex_r	pro_sup_l	pro_sup_r	glut_med1_l/activation	glut_med2_l/activation	glut_med3_l/activation	glut_min1_l/activation	glut_min2_l/activation	glut_min3_l/activation	semimem_l/activation	semiten_l/activation	bifemlh_l/activation	bifemsh_l/activation	sar_l/activation	add_long_l/activation	add_brev_l/activation	add_mag1_l/activation	add_mag2_l/activation	add_mag3_l/activation	tfl_l/activation	pect_l/activation	grac_l/activation	glut_max1_l/activation	glut_max2_l/activation	glut_max3_l/activation	iliacus_l/activation	psoas_l/activation	quad_fem_l/activation	gem_l/activation	peri_l/activation	rect_fem_l/activation	vas_med_l/activation	vas_int_l/activation	vas_lat_l/activation	med_gas_l/activation	lat_gas_l/activation	soleus_l/activation	tib_post_l/activation	flex_dig_l/activation	flex_hal_l/activation	tib_ant_l/activation	per_brev_l/activation	per_long_l/activation	per_tert_l/activation	ext_dig_l/activation	ext_hal_l/activation	ercspn_l/activation	intobl_l/activation	extobl_l/activation	glut_med1_r/activation	glut_med2_r/activation	glut_med3_r/activation	glut_min1_r/activation	glut_min2_r/activation	glut_min3_r/activation	semimem_r/activation	semiten_r/activation	bifemlh_r/activation	bifemsh_r/activation	sar_r/activation	add_long_r/activation	add_brev_r/activation	add_mag1_r/activation	add_mag2_r/activation	add_mag3_r/activation	tfl_r/activation	pect_r/activation	grac_r/activation	glut_max1_r/activation	glut_max2_r/activation	glut_max3_r/activation	iliacus_r/activation	psoas_r/activation	quad_fem_r/activation	gem_r/activation	peri_r/activation	rect_fem_r/activation	vas_med_r/activation	vas_int_r/activation	vas_lat_r/activation	med_gas_r/activation	lat_gas_r/activation	soleus_r/activation	tib_post_r/activation	flex_dig_r/activation	flex_hal_r/activation	tib_ant_r/activation	per_brev_r/activation	per_long_r/activation	per_tert_r/activation	ext_dig_r/activation	ext_hal_r/activation	ercspn_r/activation	intobl_r/activation	extobl_r/activation	
          0.00000000	         -2.92228527	          0.75570688	          5.00382588	          0.00000000	          0.87226043	         -0.00224129	        -18.12527287	          1.12643468	          5.82813250	         26.10369184	         -0.22827284	         -3.41733008	         -5.04377368	         -7.09670767	         -9.17414521	          5.59733017	          6.63158832	          3.47504462	          0.54820731	          0.01783465	         27.78216302	         -0.10922066	          0.56271815	         -3.08878619	         -1.59015877	          3.92427606	        -13.47401580	         12.56149805	         -8.93636692	        -13.45176589	         12.82582075	         26.11107284	         16.72143193	         86.51662706	         86.51662706	          0.26619085	          0.08763143	          0.07654729	          0.24939729	          0.15221213	          0.08916122	          0.05000926	          0.05000080	          0.05000069	          0.05000072	          0.09659541	          0.05867750	          0.05000076	          0.05000138	          0.05000529	          0.05000511	          0.22219245	          0.05000281	          0.05000167	          0.05004404	          0.05002384	          0.05001180	          0.36653364	          0.65757851	          0.05000160	          0.05004896	          0.05894755	          0.31753966	          0.05567185	          0.05776234	          0.05952690	          0.19768200	          0.28628774	          0.23433606	          0.23428439	          0.21717908	          0.29359350	          0.05000009	          0.09117806	          0.14743730	          0.05000072	          0.05000020	          0.05000054	          0.05000002	          0.05000012	          0.05000011	          0.06711749	          0.07342712	          0.05007426	          0.05000140	          0.05000248	          0.05010348	          0.06949260	          0.05898552	          0.12646893	          0.05003490	          0.05000183	          0.05000102	          0.05569120	          0.09639377	          0.13589698	          0.15053885	          0.05000882	          0.05000363	          0.05891907	          0.05895135	          0.11738795	          0.16655312	          0.05000026	          0.05000042	          0.06537768	          0.05894667	          0.05001464	          0.05000097	          0.05000271	          0.05000318	          0.05000208	          0.05000054	          0.05000120	          0.05812934	          0.05883733	          0.05894650	          0.05894626	          0.47592145	          0.31010314	          0.19906716	          0.22317921	          0.47894389	          0.26712453	          0.05072722	          0.14210352	          0.14406706	
          0.01073525	         -2.90829412	          0.81916638	          5.16759426	          0.01675415	          0.87084984	         -0.00210187	        -17.98810647	          0.98804389	          5.60469097	         25.67495950	         -0.09922740	         -3.18541302	         -7.07709326	         -6.96964558	         -9.87746809	          5.10076278	          7.71172222	          3.00761457	          0.50726888	          0.01808378	         28.63447472	         -0.08732201	          0.77407744	         -2.92536226	         -1.64979070	          3.75020049	        -13.50554601	         12.94094417	        -10.14218165	        -13.44970972	         12.63495546	         26.92967964	         16.78655045	         86.51662706	         86.51662706	          0.22579232	          0.07433198	          0.06493026	          0.21154751	          0.12911157	          0.07562969	          0.05000402	          0.05000045	          0.05000039	          0.05000072	          0.08193643	          0.13872538	          0.13525699	          0.05034449	          0.05001641	          0.05000120	          0.18847132	          0.12272137	          0.05893806	          0.05000564	          0.05000272	          0.05000299	          0.31090626	          0.60108408	          0.06949193	          0.05000326	          0.05000201	          0.26934783	          0.12446136	          0.15676168	          0.09281144	          0.16768049	          0.24283893	          0.21471057	          0.19873311	          0.18422132	          0.24903717	          0.05000007	          0.07734055	          0.14163179	          0.05000036	          0.05000012	          0.05000042	          0.05000037	          0.05094705	          0.05000318	          0.10892022	          0.06228460	          0.28493683	          0.05894670	          0.05894645	          0.05003966	          0.05894638	          0.05003375	          0.11458440	          0.05000076	          0.05000512	          0.08866405	          0.11977803	          0.17930213	          0.19978337	          0.18376049	          0.05000055	          0.06959805	          0.05004130	          0.05000494	          0.09957314	          0.21976739	          0.05894594	          0.05000339	          0.05545569	          0.05000181	          0.12153217	          0.06302629	          0.22862917	          0.23305811	          0.19412272	          0.05000002	          0.05000005	          0.05000001	          0.05000002	          0.05000061	          0.05000043	          0.62598189	          0.32951294	          0.16886062	          0.54722292	          0.56897206	          0.37727172	          0.05000020	          0.12053696	          0.12220250	
          0.02147051	         -2.88757781	          0.86668562	          5.30603223	          0.03379327	          0.86935189	         -0.00196126	        -17.74050374	          0.84028481	          5.37553915	         25.16356402	          0.02356242	         -2.91549069	         -9.32263704	         -7.47967267	        -10.58805127	          4.39483255	          8.78710370	          2.53833439	          0.44730052	          0.01248388	         29.10632766	         -0.04929851	          1.00718512	         -2.73016966	         -1.70180858	          3.50337324	        -13.54461251	         13.28501175	        -11.36327099	        -13.45576799	         12.48900587	         27.74418858	         16.86605699	         86.51662706	         86.51662706	          0.19152474	          0.06305095	          0.05894597	          0.17944210	          0.10951689	          0.06415180	          0.05000621	          0.05000056	          0.05000096	          0.05000020	          0.06950165	          0.17897919	          0.29237465	          0.10023132	          0.05893913	          0.10845258	          0.15986785	          0.10409736	          0.05000170	          0.05017660	          0.05867897	          0.05894339	          0.26372113	          0.52236601	          0.05894612	          0.05894605	          0.05000737	          0.22846986	          0.13424069	          0.13427529	          0.13423863	          0.14223220	          0.20598414	          0.18212471	          0.16857225	          0.15626326	          0.21124204	          0.05000008	          0.06560311	          0.14922625	          0.05000025	          0.05000025	          0.05000042	          0.05317267	          0.06513409	          0.06150346	          0.16519402	          0.06359698	          0.24170805	          0.05000074	          0.05000072	          0.05000135	          0.05000041	          0.05000032	          0.09719441	          0.05000016	          0.05000066	          0.07520803	          0.10159993	          0.21204460	          0.23615460	          0.18174958	          0.05000990	          0.05903702	          0.05000180	          0.13837488	          0.15508181	          0.20420451	          0.05000026	          0.05000056	          0.17654417	          0.05739503	          0.10308790	          0.06948334	          0.21647509	          0.24154180	          0.17024523	          0.05005896	          0.05894686	          0.05000110	          0.05811273	          0.05896520	          0.05894896	          0.53097877	          0.35071759	          0.18319408	          0.46417293	          0.48262130	          0.32001458	          0.05000005	          0.10224349	          0.10365625	
          0.03220576	         -2.86231397	          0.89794646	          5.41800819	          0.05093667	          0.86774608	         -0.00182931	        -17.38582653	          0.68887318	          5.14266409	         24.55402069	          0.12373152	         -2.61949126	        -11.75440964	         -8.37462628	        -11.23387650	          3.83959993	          9.82198363	          2.03109431	          0.36593458	         -0.00480432	         28.99735542	         -0.18962026	          1.24464457	         -2.50573436	         -1.74362377	          3.20992536	        -13.58873254	         13.58891923	        -12.55890177	        -13.47401547	         12.42869891	         28.55740734	         16.92717018	         86.51662706	         86.51662706	          0.18664627	          0.05348199	          0.05000011	          0.15223935	          0.09289604	          0.05441584	          0.06721552	          0.05000098	          0.05000072	          0.05000093	          0.05895515	          0.18835762	          0.29126034	          0.08502052	          0.05002138	          0.09199416	          0.13560553	          0.08830583	          0.05000354	          0.05000218	          0.05000146	          0.05000189	          0.22369716	          0.48073808	          0.05000031	          0.05000081	          0.05000023	          0.19379578	          0.11386753	          0.11389687	          0.11386578	          0.12064612	          0.17472267	          0.15448427	          0.14298874	          0.13254811	          0.17918288	          0.05002614	          0.11346787	          0.12657938	          0.06321878	          0.15270806	          0.05012324	          0.06945121	          0.05524894	          0.05216998	          0.27705880	          0.26161309	          0.39333439	          0.25850602	          0.19694512	          0.22882869	          0.06948230	          0.08611282	          0.08894483	          0.06949411	          0.05894567	          0.06379412	          0.08618058	          0.17986358	          0.20031491	          0.19053795	          0.05000092	          0.05008682	          0.05212408	          0.19925672	          0.19952715	          0.21070309	          0.05000777	          0.05000163	          0.14975083	          0.05009197	          0.20022147	          0.05893813	          0.18362154	          0.20488396	          0.14440782	          0.05000054	          0.05000107	          0.05000016	          0.05000003	          0.05001659	          0.05000289	          0.58043195	          0.29749060	          0.15539142	          0.66680055	          0.58717456	          0.35590730	          0.05000010	          0.08672637	          0.08792470	
